<svg xmlns="http://www.w3.org/2000/svg" xmlns:xlink="http://www.w3.org/1999/xlink" version="1.1" class="marks" width="779" height="290" viewBox="0 0 779 290"><rect width="779" height="290" fill="#ffffff"/><g fill="none" stroke-miterlimit="10" transform="translate(40,46)"><g class="mark-group role-frame root" role="graphics-object" aria-roledescription="group mark container"><g transform="translate(0,0)"><path class="background" aria-hidden="true" d="M0,0h600v200h-600Z" fill="#ffffff" stroke="#ffffff" stroke-width="0"/><g><g class="mark-group role-axis" role="graphics-symbol" aria-roledescription="axis" aria-label="X-axis titled 'Posterior, x' for a linear scale with values from 0.02 to 0.18"><g transform="translate(0.5,200.5)"><path class="background" aria-hidden="true" d="M0,0h0v0h0Z" pointer-events="none"/><g><g class="mark-rule role-axis-tick" pointer-events="none"><line transform="translate(0,0)" x2="0" y2="5" stroke="#888" stroke-width="1" opacity="1"/><line transform="translate(37,0)" x2="0" y2="5" stroke="#888" stroke-width="1" opacity="1"/><line transform="translate(75,0)" x2="0" y2="5" stroke="#888" stroke-width="1" opacity="1"/><line transform="translate(113,0)" x2="0" y2="5" stroke="#888" stroke-width="1" opacity="1"/><line transform="translate(150,0)" x2="0" y2="5" stroke="#888" stroke-width="1" opacity="1"/><line transform="translate(188,0)" x2="0" y2="5" stroke="#888" stroke-width="1" opacity="1"/><line transform="translate(225,0)" x2="0" y2="5" stroke="#888" stroke-width="1" opacity="1"/><line transform="translate(262,0)" x2="0" y2="5" stroke="#888" stroke-width="1" opacity="1"/><line transform="translate(300,0)" x2="0" y2="5" stroke="#888" stroke-width="1" opacity="1"/><line transform="translate(338,0)" x2="0" y2="5" stroke="#888" stroke-width="1" opacity="1"/><line transform="translate(375,0)" x2="0" y2="5" stroke="#888" stroke-width="1" opacity="1"/><line transform="translate(413,0)" x2="0" y2="5" stroke="#888" stroke-width="1" opacity="1"/><line transform="translate(450,0)" x2="0" y2="5" stroke="#888" stroke-width="1" opacity="1"/><line transform="translate(488,0)" x2="0" y2="5" stroke="#888" stroke-width="1" opacity="1"/><line transform="translate(525,0)" x2="0" y2="5" stroke="#888" stroke-width="1" opacity="1"/><line transform="translate(563,0)" x2="0" y2="5" stroke="#888" stroke-width="1" opacity="1"/><line transform="translate(600,0)" x2="0" y2="5" stroke="#888" stroke-width="1" opacity="1"/></g><g class="mark-text role-axis-label" pointer-events="none"><text text-anchor="start" transform="translate(0,16)" font-family="IBM Plex Sans Condensed, system-ui, -apple-system, BlinkMacSystemFont, &quot;.SFNSText-Regular&quot;, sans-serif" font-size="12px" font-weight="400" fill="#525252" opacity="1">0.02</text><text text-anchor="middle" transform="translate(37.49999999999999,16)" font-family="IBM Plex Sans Condensed, system-ui, -apple-system, BlinkMacSystemFont, &quot;.SFNSText-Regular&quot;, sans-serif" font-size="12px" font-weight="400" fill="#525252" opacity="1">0.03</text><text text-anchor="middle" transform="translate(75,16)" font-family="IBM Plex Sans Condensed, system-ui, -apple-system, BlinkMacSystemFont, &quot;.SFNSText-Regular&quot;, sans-serif" font-size="12px" font-weight="400" fill="#525252" opacity="1">0.04</text><text text-anchor="middle" transform="translate(112.5,16)" font-family="IBM Plex Sans Condensed, system-ui, -apple-system, BlinkMacSystemFont, &quot;.SFNSText-Regular&quot;, sans-serif" font-size="12px" font-weight="400" fill="#525252" opacity="1">0.05</text><text text-anchor="middle" transform="translate(149.99999999999997,16)" font-family="IBM Plex Sans Condensed, system-ui, -apple-system, BlinkMacSystemFont, &quot;.SFNSText-Regular&quot;, sans-serif" font-size="12px" font-weight="400" fill="#525252" opacity="1">0.06</text><text text-anchor="middle" transform="translate(187.5,16)" font-family="IBM Plex Sans Condensed, system-ui, -apple-system, BlinkMacSystemFont, &quot;.SFNSText-Regular&quot;, sans-serif" font-size="12px" font-weight="400" fill="#525252" opacity="1">0.07</text><text text-anchor="middle" transform="translate(225,16)" font-family="IBM Plex Sans Condensed, system-ui, -apple-system, BlinkMacSystemFont, &quot;.SFNSText-Regular&quot;, sans-serif" font-size="12px" font-weight="400" fill="#525252" opacity="1">0.08</text><text text-anchor="middle" transform="translate(262.49999999999994,16)" font-family="IBM Plex Sans Condensed, system-ui, -apple-system, BlinkMacSystemFont, &quot;.SFNSText-Regular&quot;, sans-serif" font-size="12px" font-weight="400" fill="#525252" opacity="1">0.09</text><text text-anchor="middle" transform="translate(300,16)" font-family="IBM Plex Sans Condensed, system-ui, -apple-system, BlinkMacSystemFont, &quot;.SFNSText-Regular&quot;, sans-serif" font-size="12px" font-weight="400" fill="#525252" opacity="1">0.10</text><text text-anchor="middle" transform="translate(337.5,16)" font-family="IBM Plex Sans Condensed, system-ui, -apple-system, BlinkMacSystemFont, &quot;.SFNSText-Regular&quot;, sans-serif" font-size="12px" font-weight="400" fill="#525252" opacity="1">0.11</text><text text-anchor="middle" transform="translate(374.99999999999994,16)" font-family="IBM Plex Sans Condensed, system-ui, -apple-system, BlinkMacSystemFont, &quot;.SFNSText-Regular&quot;, sans-serif" font-size="12px" font-weight="400" fill="#525252" opacity="1">0.12</text><text text-anchor="middle" transform="translate(412.5,16)" font-family="IBM Plex Sans Condensed, system-ui, -apple-system, BlinkMacSystemFont, &quot;.SFNSText-Regular&quot;, sans-serif" font-size="12px" font-weight="400" fill="#525252" opacity="1">0.13</text><text text-anchor="middle" transform="translate(450,16)" font-family="IBM Plex Sans Condensed, system-ui, -apple-system, BlinkMacSystemFont, &quot;.SFNSText-Regular&quot;, sans-serif" font-size="12px" font-weight="400" fill="#525252" opacity="1">0.14</text><text text-anchor="middle" transform="translate(487.5,16)" font-family="IBM Plex Sans Condensed, system-ui, -apple-system, BlinkMacSystemFont, &quot;.SFNSText-Regular&quot;, sans-serif" font-size="12px" font-weight="400" fill="#525252" opacity="1">0.15</text><text text-anchor="middle" transform="translate(525.0000000000001,16)" font-family="IBM Plex Sans Condensed, system-ui, -apple-system, BlinkMacSystemFont, &quot;.SFNSText-Regular&quot;, sans-serif" font-size="12px" font-weight="400" fill="#525252" opacity="1">0.16</text><text text-anchor="middle" transform="translate(562.5000000000001,16)" font-family="IBM Plex Sans Condensed, system-ui, -apple-system, BlinkMacSystemFont, &quot;.SFNSText-Regular&quot;, sans-serif" font-size="12px" font-weight="400" fill="#525252" opacity="1">0.17</text><text text-anchor="end" transform="translate(600,16)" font-family="IBM Plex Sans Condensed, system-ui, -apple-system, BlinkMacSystemFont, &quot;.SFNSText-Regular&quot;, sans-serif" font-size="12px" font-weight="400" fill="#525252" opacity="1">0.18</text></g><g class="mark-rule role-axis-domain" pointer-events="none"><line transform="translate(0,0)" x2="600" y2="0" stroke="#888" stroke-width="1" opacity="1"/></g><g class="mark-text role-axis-title" pointer-events="none"><text text-anchor="middle" transform="translate(300,37)" font-family="IBM Plex Sans,system-ui,-apple-system,BlinkMacSystemFont,&quot;.sfnstext-regular&quot;,sans-serif" font-size="12px" font-weight="600" fill="#161616" opacity="1">Posterior, x</text></g></g><path class="foreground" aria-hidden="true" d="" pointer-events="none" display="none"/></g></g><g class="mark-group role-axis" role="graphics-symbol" aria-roledescription="axis" aria-label="Y-axis titled 'density' for a linear scale with values from 0 to 50"><g transform="translate(0.5,0.5)"><path class="background" aria-hidden="true" d="M0,0h0v0h0Z" pointer-events="none"/><g><g class="mark-rule role-axis-tick" pointer-events="none"><line transform="translate(0,200)" x2="-5" y2="0" stroke="#888" stroke-width="1" opacity="1"/><line transform="translate(0,160)" x2="-5" y2="0" stroke="#888" stroke-width="1" opacity="1"/><line transform="translate(0,120)" x2="-5" y2="0" stroke="#888" stroke-width="1" opacity="1"/><line transform="translate(0,80)" x2="-5" y2="0" stroke="#888" stroke-width="1" opacity="1"/><line transform="translate(0,40)" x2="-5" y2="0" stroke="#888" stroke-width="1" opacity="1"/><line transform="translate(0,0)" x2="-5" y2="0" stroke="#888" stroke-width="1" opacity="1"/></g><g class="mark-text role-axis-label" pointer-events="none"><text text-anchor="end" transform="translate(-7,204)" font-family="IBM Plex Sans Condensed, system-ui, -apple-system, BlinkMacSystemFont, &quot;.SFNSText-Regular&quot;, sans-serif" font-size="12px" font-weight="400" fill="#525252" opacity="1">0</text><text text-anchor="end" transform="translate(-7,164)" font-family="IBM Plex Sans Condensed, system-ui, -apple-system, BlinkMacSystemFont, &quot;.SFNSText-Regular&quot;, sans-serif" font-size="12px" font-weight="400" fill="#525252" opacity="1">10</text><text text-anchor="end" transform="translate(-7,124)" font-family="IBM Plex Sans Condensed, system-ui, -apple-system, BlinkMacSystemFont, &quot;.SFNSText-Regular&quot;, sans-serif" font-size="12px" font-weight="400" fill="#525252" opacity="1">20</text><text text-anchor="end" transform="translate(-7,84)" font-family="IBM Plex Sans Condensed, system-ui, -apple-system, BlinkMacSystemFont, &quot;.SFNSText-Regular&quot;, sans-serif" font-size="12px" font-weight="400" fill="#525252" opacity="1">30</text><text text-anchor="end" transform="translate(-7,43.99999999999999)" font-family="IBM Plex Sans Condensed, system-ui, -apple-system, BlinkMacSystemFont, &quot;.SFNSText-Regular&quot;, sans-serif" font-size="12px" font-weight="400" fill="#525252" opacity="1">40</text><text text-anchor="end" transform="translate(-7,4)" font-family="IBM Plex Sans Condensed, system-ui, -apple-system, BlinkMacSystemFont, &quot;.SFNSText-Regular&quot;, sans-serif" font-size="12px" font-weight="400" fill="#525252" opacity="1">50</text></g><g class="mark-rule role-axis-domain" pointer-events="none"><line transform="translate(0,200)" x2="0" y2="-200" stroke="#888" stroke-width="1" opacity="1"/></g><g class="mark-text role-axis-title" pointer-events="none"><text text-anchor="middle" transform="translate(-21.5,100) rotate(-90) translate(0,-3)" font-family="IBM Plex Sans,system-ui,-apple-system,BlinkMacSystemFont,&quot;.sfnstext-regular&quot;,sans-serif" font-size="12px" font-weight="600" fill="#161616" opacity="1">density</text></g></g><path class="foreground" aria-hidden="true" d="" pointer-events="none" display="none"/></g></g><g class="mark-group role-scope layer_0_pathgroup" role="graphics-object" aria-roledescription="group mark container"><g transform="translate(0,0)"><path class="background" aria-hidden="true" d="M0,0h600v200h-600Z"/><g><g class="mark-line role-mark layer_0_marks" role="graphics-object" aria-roledescription="line mark container"><path aria-label="Posterior: 0.0232457636846; density: 1.75940956539e-13; Prior: Very Optimistic" role="graphics-symbol" aria-roledescription="line mark" d="M12.172,200L15.111,200L18.049,200L20.988,200L23.927,200L26.866,200L29.805,200L32.744,200L35.683,200L38.622,200L41.561,200L44.5,200L47.439,200L50.378,200L53.317,200L56.255,200L59.194,200L62.133,199.999L65.072,199.999L68.011,199.997L70.95,199.995L73.889,199.99L76.828,199.983L79.767,199.971L82.706,199.954L85.645,199.931L88.584,199.9L91.523,199.861L94.461,199.815L97.4,199.762L100.339,199.704L103.278,199.642L106.217,199.577L109.156,199.507L112.095,199.432L115.034,199.349L117.973,199.255L120.912,199.147L123.851,199.021L126.79,198.875L129.729,198.706L132.667,198.508L135.606,198.278L138.545,198.006L141.484,197.681L144.423,197.289L147.362,196.813L150.301,196.239L153.24,195.552L156.179,194.746L159.118,193.817L162.057,192.771L164.996,191.618L167.935,190.372L170.873,189.046L173.812,187.645L176.751,186.169L179.69,184.61L182.629,182.95L185.568,181.167L188.507,179.24L191.446,177.154L194.385,174.906L197.324,172.505L200.263,169.972L203.202,167.341L206.14,164.652L209.079,161.947L212.018,159.266L214.957,156.643L217.896,154.105L220.835,151.672L223.774,149.352L226.713,147.142L229.652,145.03L232.591,142.988L235.53,140.979L238.469,138.955L241.408,136.872L244.346,134.694L247.285,132.401L250.224,130.003L253.163,127.533L256.102,125.047L259.041,122.61L261.98,120.286L264.919,118.125L267.858,116.162L270.797,114.409L273.736,112.863L276.675,111.51L279.614,110.333L282.552,109.322L285.491,108.472L288.43,107.788L291.369,107.284L294.308,106.977L297.247,106.887L300.186,107.028L303.125,107.413L306.064,108.043L309.003,108.914L311.942,110.01L314.881,111.307L317.82,112.777L320.758,114.392L323.697,116.131L326.636,117.983L329.575,119.945L332.514,122.016L335.453,124.194L338.392,126.466L341.331,128.814L344.27,131.212L347.209,133.634L350.148,136.055L353.087,138.456L356.026,140.817L358.964,143.12L361.903,145.351L364.842,147.501L367.781,149.572L370.72,151.579L373.659,153.552L376.598,155.529L379.537,157.545L382.476,159.627L385.415,161.778L388.354,163.983L391.293,166.207L394.232,168.404L397.17,170.524L400.109,172.524L403.048,174.371L405.987,176.049L408.926,177.558L411.865,178.913L414.804,180.14L417.743,181.274L420.682,182.348L423.621,183.395L426.56,184.436L429.499,185.483L432.438,186.54L435.376,187.601L438.315,188.652L441.254,189.678L444.193,190.663L447.132,191.591L450.071,192.451L453.01,193.232L455.949,193.932L458.888,194.548L461.827,195.083L464.766,195.543L467.705,195.932L470.644,196.257L473.582,196.526L476.521,196.747L479.46,196.933L482.399,197.095L485.338,197.248L488.277,197.403L491.216,197.567L494.155,197.746L497.094,197.937L500.033,198.135L502.972,198.333L505.911,198.525L508.85,198.704L511.788,198.868L514.727,199.017L517.666,199.151L520.605,199.272L523.544,199.384L526.483,199.487L529.422,199.582L532.361,199.668L535.3,199.744L538.239,199.809L541.178,199.863L544.117,199.905L547.056,199.936L549.994,199.957L552.933,199.97L555.872,199.976L558.811,199.976L561.75,199.97L564.689,199.96L567.628,199.945L570.567,199.926L573.506,199.905L576.445,199.882L579.384,199.86L582.323,199.84L585.262,199.824L588.2,199.812L591.139,199.807L594.078,199.808L597.017,199.815L599.956,199.828" stroke="#107591" stroke-width="2" opacity="0.5"/></g></g><path class="foreground" aria-hidden="true" d="" display="none"/></g><g transform="translate(0,0)"><path class="background" aria-hidden="true" d="M0,0h600v200h-600Z"/><g><g class="mark-line role-mark layer_0_marks" role="graphics-object" aria-roledescription="line mark container"><path aria-label="Posterior: 0.0232457636846; density: 1.89606939843e-10; Prior: Optimistic" role="graphics-symbol" aria-roledescription="line mark" d="M12.172,200L15.111,200L18.049,200L20.988,200L23.927,200L26.866,200L29.805,200L32.744,200L35.683,200L38.622,200L41.561,200L44.5,200L47.439,199.999L50.378,199.999L53.317,199.997L56.255,199.994L59.194,199.989L62.133,199.979L65.072,199.963L68.011,199.938L70.95,199.9L73.889,199.845L76.828,199.768L79.767,199.665L82.706,199.535L85.645,199.377L88.584,199.195L91.523,198.995L94.461,198.785L97.4,198.574L100.339,198.367L103.278,198.166L106.217,197.963L109.156,197.746L112.095,197.492L115.034,197.177L117.973,196.776L120.912,196.267L123.851,195.635L126.79,194.869L129.729,193.967L132.667,192.924L135.606,191.734L138.545,190.389L141.484,188.873L144.423,187.168L147.362,185.26L150.301,183.136L153.24,180.796L156.179,178.244L159.118,175.497L162.057,172.577L164.996,169.51L167.935,166.33L170.873,163.072L173.812,159.774L176.751,156.473L179.69,153.201L182.629,149.985L185.568,146.844L188.507,143.79L191.446,140.834L194.385,137.989L197.324,135.27L200.263,132.695L203.202,130.278L206.14,128.032L209.079,125.96L212.018,124.055L214.957,122.306L217.896,120.699L220.835,119.215L223.774,117.833L226.713,116.518L229.652,115.225L232.591,113.892L235.53,112.461L238.469,110.885L241.408,109.161L244.346,107.337L247.285,105.517L250.224,103.848L253.163,102.492L256.102,101.595L259.041,101.261L261.98,101.539L264.919,102.419L267.858,103.842L270.797,105.714L273.736,107.923L276.675,110.347L279.614,112.873L282.552,115.401L285.491,117.856L288.43,120.193L291.369,122.395L294.308,124.472L297.247,126.453L300.186,128.374L303.125,130.274L306.064,132.19L309.003,134.15L311.942,136.177L314.881,138.283L317.82,140.467L320.758,142.716L323.697,145.002L326.636,147.293L329.575,149.555L332.514,151.769L335.453,153.931L338.392,156.055L341.331,158.164L344.27,160.281L347.209,162.42L350.148,164.577L353.087,166.731L356.026,168.854L358.964,170.916L361.903,172.894L364.842,174.779L367.781,176.571L370.72,178.275L373.659,179.896L376.598,181.437L379.537,182.892L382.476,184.255L385.415,185.521L388.354,186.686L391.293,187.752L394.232,188.725L397.17,189.614L400.109,190.427L403.048,191.174L405.987,191.864L408.926,192.507L411.865,193.111L414.804,193.684L417.743,194.232L420.682,194.756L423.621,195.258L426.56,195.733L429.499,196.18L432.438,196.595L435.376,196.972L438.315,197.309L441.254,197.603L444.193,197.848L447.132,198.046L450.071,198.195L453.01,198.3L455.949,198.368L458.888,198.41L461.827,198.44L464.766,198.471L467.705,198.514L470.644,198.575L473.582,198.657L476.521,198.756L479.46,198.865L482.399,198.976L485.338,199.082L488.277,199.178L491.216,199.262L494.155,199.338L497.094,199.408L500.033,199.476L502.972,199.545L505.911,199.615L508.85,199.684L511.788,199.751L514.727,199.81L517.666,199.859L520.605,199.897L523.544,199.923L526.483,199.936L529.422,199.939L532.361,199.934L535.3,199.923L538.239,199.909L541.178,199.896L544.117,199.885L547.056,199.88L549.994,199.881L552.933,199.888L555.872,199.901L558.811,199.916L561.75,199.934L564.689,199.95L567.628,199.965L570.567,199.976L573.506,199.985L576.445,199.991L579.384,199.995L582.323,199.997L585.262,199.999L588.2,199.999L591.139,200L594.078,200L597.017,200L599.956,200" stroke="#f69a48" stroke-width="2" opacity="0.5"/></g></g><path class="foreground" aria-hidden="true" d="" display="none"/></g><g transform="translate(0,0)"><path class="background" aria-hidden="true" d="M0,0h600v200h-600Z"/><g><g class="mark-line role-mark layer_0_marks" role="graphics-object" aria-roledescription="line mark container"><path aria-label="Posterior: 0.0232457636846; density: 0.000546957603007; Prior: Historical Based" role="graphics-symbol" aria-roledescription="line mark" d="M12.172,199.998L15.111,199.996L18.049,199.992L20.988,199.985L23.927,199.974L26.866,199.957L29.805,199.932L32.744,199.897L35.683,199.85L38.622,199.787L41.561,199.706L44.5,199.602L47.439,199.475L50.378,199.322L53.317,199.146L56.255,198.948L59.194,198.731L62.133,198.493L65.072,198.229L68.011,197.926L70.95,197.562L73.889,197.114L76.828,196.556L79.767,195.865L82.706,195.024L85.645,194.028L88.584,192.876L91.523,191.575L94.461,190.13L97.4,188.54L100.339,186.794L103.278,184.872L106.217,182.75L109.156,180.409L112.095,177.836L115.034,175.034L117.973,172.018L120.912,168.81L123.851,165.434L126.79,161.916L129.729,158.279L132.667,154.551L135.606,150.765L138.545,146.961L141.484,143.183L144.423,139.467L147.362,135.837L150.301,132.301L153.24,128.852L156.179,125.476L159.118,122.166L162.057,118.931L164.996,115.806L167.935,112.854L170.873,110.156L173.812,107.796L176.751,105.846L179.69,104.339L182.629,103.263L185.568,102.56L188.507,102.135L191.446,101.879L194.385,101.696L197.324,101.515L200.263,101.31L203.202,101.095L206.14,100.919L209.079,100.854L212.018,100.977L214.957,101.357L217.896,102.051L220.835,103.095L223.774,104.505L226.713,106.276L229.652,108.38L232.591,110.766L235.53,113.357L238.469,116.056L241.408,118.756L244.346,121.361L247.285,123.798L250.224,126.036L253.163,128.091L256.102,130.022L259.041,131.918L261.98,133.874L264.919,135.965L267.858,138.237L270.797,140.695L273.736,143.319L276.675,146.079L279.614,148.945L282.552,151.899L285.491,154.918L288.43,157.97L291.369,161L294.308,163.933L297.247,166.686L300.186,169.189L303.125,171.4L306.064,173.314L309.003,174.96L311.942,176.39L314.881,177.668L317.82,178.853L320.758,179.993L323.697,181.122L326.636,182.258L329.575,183.409L332.514,184.571L335.453,185.738L338.392,186.897L341.331,188.038L344.27,189.145L347.209,190.203L350.148,191.197L353.087,192.113L356.026,192.947L358.964,193.697L361.903,194.373L364.842,194.987L367.781,195.549L370.72,196.067L373.659,196.542L376.598,196.968L379.537,197.339L382.476,197.654L385.415,197.913L388.354,198.125L391.293,198.304L394.232,198.461L397.17,198.607L400.109,198.748L403.048,198.884L405.987,199.013L408.926,199.132L411.865,199.238L414.804,199.332L417.743,199.417L420.682,199.492L423.621,199.559L426.56,199.617L429.499,199.664L432.438,199.699L435.376,199.722L438.315,199.734L441.254,199.738L444.193,199.736L447.132,199.732L450.071,199.728L453.01,199.726L455.949,199.729L458.888,199.738L461.827,199.754L464.766,199.776L467.705,199.801L470.644,199.827L473.582,199.851L476.521,199.869L479.46,199.879L482.399,199.882L485.338,199.878L488.277,199.872L491.216,199.867L494.155,199.867L497.094,199.872L500.033,199.883L502.972,199.9L505.911,199.919L508.85,199.939L511.788,199.956L514.727,199.971L517.666,199.982L520.605,199.989L523.544,199.994L526.483,199.997L529.422,199.999L532.361,199.999L535.3,200L538.239,200L541.178,200L544.117,200L547.056,200L549.994,200L552.933,200L555.872,200L558.811,200L561.75,200L564.689,200L567.628,200L570.567,200L573.506,200L576.445,200L579.384,200L582.323,200L585.262,200L588.2,200L591.139,200L594.078,200L597.017,200L599.956,200" stroke="#00c0bf" stroke-width="2" opacity="0.5"/></g></g><path class="foreground" aria-hidden="true" d="" display="none"/></g><g transform="translate(0,0)"><path class="background" aria-hidden="true" d="M0,0h600v200h-600Z"/><g><g class="mark-line role-mark layer_0_marks" role="graphics-object" aria-roledescription="line mark container"><path aria-label="Posterior: 0.0232457636846; density: 3.63140414492e-82; Prior: Strong Historical" role="graphics-symbol" aria-roledescription="line mark" d="M12.172,200L15.111,200L18.049,200L20.988,200L23.927,200L26.866,200L29.805,200L32.744,200L35.683,200L38.622,200L41.561,200L44.5,200L47.439,200L50.378,200L53.317,200L56.255,200L59.194,200L62.133,200L65.072,200L68.011,200L70.95,200L73.889,200L76.828,200L79.767,200L82.706,200L85.645,200L88.584,200L91.523,200L94.461,200L97.4,200L100.339,200L103.278,200L106.217,199.999L109.156,199.996L112.095,199.985L115.034,199.948L117.973,199.857L120.912,199.67L123.851,199.365L126.79,198.963L129.729,198.543L132.667,198.19L135.606,197.904L138.545,197.567L141.484,197.013L144.423,196.128L147.362,194.817L150.301,192.913L153.24,190.182L156.179,186.42L159.118,181.467L162.057,175.178L164.996,167.503L167.935,158.625L170.873,148.887L173.812,138.584L176.751,127.914L179.69,117.1L182.629,106.296L185.568,95.229L188.507,83.232L191.446,70.011L194.385,56.345L197.324,43.748L200.263,33.304L203.202,24.852L206.14,17.42L209.079,10.523L212.018,5.125L214.957,3.186L217.896,5.762L220.835,11.365L223.774,16.796L226.713,19.943L229.652,21.403L232.591,23.407L235.53,27.732L238.469,34.707L241.408,43.686L244.346,53.963L247.285,65.136L250.224,76.887L253.163,88.674L256.102,99.848L259.041,110.215L261.98,120.308L264.919,130.736L267.858,141.278L270.797,150.911L273.736,158.746L276.675,164.722L279.614,169.411L282.552,173.437L285.491,177.13L288.43,180.528L291.369,183.555L294.308,186.203L297.247,188.559L300.186,190.678L303.125,192.537L306.064,194.136L309.003,195.526L311.942,196.723L314.881,197.672L317.82,198.338L320.758,198.774L323.697,199.077L326.636,199.304L329.575,199.469L332.514,199.57L335.453,199.613L338.392,199.61L341.331,199.589L344.27,199.582L347.209,199.611L350.148,199.681L353.087,199.778L356.026,199.872L358.964,199.94L361.903,199.978L364.842,199.993L367.781,199.998L370.72,200L373.659,200L376.598,200L379.537,200L382.476,200L385.415,200L388.354,200L391.293,200L394.232,200L397.17,200L400.109,200L403.048,200L405.987,200L408.926,200L411.865,200L414.804,200L417.743,200L420.682,200L423.621,200L426.56,200L429.499,200L432.438,200L435.376,200L438.315,200L441.254,200L444.193,200L447.132,200L450.071,200L453.01,200L455.949,200L458.888,200L461.827,200L464.766,200L467.705,200L470.644,200L473.582,200L476.521,200L479.46,200L482.399,200L485.338,200L488.277,200L491.216,200L494.155,200L497.094,200L500.033,200L502.972,200L505.911,200L508.85,200L511.788,200L514.727,200L517.666,200L520.605,200L523.544,200L526.483,200L529.422,200L532.361,200L535.3,200L538.239,200L541.178,200L544.117,200L547.056,200L549.994,200L552.933,200L555.872,200L558.811,200L561.75,200L564.689,200L567.628,200L570.567,200L573.506,200L576.445,200L579.384,200L582.323,200L585.262,200L588.2,200L591.139,200L594.078,200L597.017,200L599.956,200" stroke="#fdcd49" stroke-width="2" opacity="0.5"/></g></g><path class="foreground" aria-hidden="true" d="" display="none"/></g><g transform="translate(0,0)"><path class="background" aria-hidden="true" d="M0,0h600v200h-600Z"/><g><g class="mark-line role-mark layer_0_marks" role="graphics-object" aria-roledescription="line mark container"><path aria-label="Posterior: 0.0232457636846; density: 0.140924869371; Prior: Skeptical" role="graphics-symbol" aria-roledescription="line mark" d="M12.172,199.436L15.111,199.257L18.049,199.048L20.988,198.807L23.927,198.53L26.866,198.204L29.805,197.813L32.744,197.336L35.683,196.75L38.622,196.032L41.561,195.159L44.5,194.111L47.439,192.869L50.378,191.416L53.317,189.743L56.255,187.845L59.194,185.729L62.133,183.403L65.072,180.874L68.011,178.142L70.95,175.192L73.889,172.004L76.828,168.547L79.767,164.797L82.706,160.746L85.645,156.417L88.584,151.874L91.523,147.219L94.461,142.576L97.4,138.067L100.339,133.776L103.278,129.735L106.217,125.92L109.156,122.263L112.095,118.684L115.034,115.116L117.973,111.531L120.912,107.95L123.851,104.44L126.79,101.097L129.729,98.015L132.667,95.267L135.606,92.886L138.545,90.87L141.484,89.194L144.423,87.825L147.362,86.734L150.301,85.897L153.24,85.294L156.179,84.925L159.118,84.827L162.057,85.09L164.996,85.847L167.935,87.239L170.873,89.357L173.812,92.194L176.751,95.629L179.69,99.455L182.629,103.432L185.568,107.362L188.507,111.128L191.446,114.712L194.385,118.171L197.324,121.593L200.263,125.063L203.202,128.635L206.14,132.318L209.079,136.08L212.018,139.848L214.957,143.512L217.896,146.948L220.835,150.041L223.774,152.722L226.713,154.994L229.652,156.934L232.591,158.68L235.53,160.385L238.469,162.182L241.408,164.146L244.346,166.29L247.285,168.57L250.224,170.911L253.163,173.221L256.102,175.416L259.041,177.427L261.98,179.212L264.919,180.76L267.858,182.089L270.797,183.242L273.736,184.271L276.675,185.226L279.614,186.145L282.552,187.054L285.491,187.963L288.43,188.877L291.369,189.79L294.308,190.693L297.247,191.571L300.186,192.411L303.125,193.203L306.064,193.941L309.003,194.622L311.942,195.243L314.881,195.801L317.82,196.291L320.758,196.712L323.697,197.067L326.636,197.364L329.575,197.617L332.514,197.841L335.453,198.05L338.392,198.255L341.331,198.462L344.27,198.673L347.209,198.885L350.148,199.093L353.087,199.289L356.026,199.465L358.964,199.615L361.903,199.737L364.842,199.829L367.781,199.894L370.72,199.935L373.659,199.956L376.598,199.961L379.537,199.952L382.476,199.93L385.415,199.896L388.354,199.855L391.293,199.809L394.232,199.767L397.17,199.736L400.109,199.722L403.048,199.729L405.987,199.754L408.926,199.793L411.865,199.839L414.804,199.883L417.743,199.921L420.682,199.951L423.621,199.972L426.56,199.985L429.499,199.992L432.438,199.996L435.376,199.998L438.315,199.999L441.254,200L444.193,200L447.132,200L450.071,200L453.01,200L455.949,200L458.888,200L461.827,200L464.766,200L467.705,200L470.644,200L473.582,200L476.521,200L479.46,200L482.399,200L485.338,200L488.277,200L491.216,200L494.155,200L497.094,200L500.033,200L502.972,200L505.911,200L508.85,200L511.788,200L514.727,200L517.666,200L520.605,200L523.544,200L526.483,200L529.422,200L532.361,200L535.3,200L538.239,200L541.178,200L544.117,200L547.056,200L549.994,200L552.933,200L555.872,200L558.811,200L561.75,200L564.689,200L567.628,200L570.567,200L573.506,200L576.445,200L579.384,200L582.323,200L585.262,200L588.2,200L591.139,200L594.078,200L597.017,200L599.956,200" stroke="#cf166e" stroke-width="2" opacity="0.5"/></g></g><path class="foreground" aria-hidden="true" d="" display="none"/></g><g transform="translate(0,0)"><path class="background" aria-hidden="true" d="M0,0h600v200h-600Z"/><g><g class="mark-line role-mark layer_0_marks" role="graphics-object" aria-roledescription="line mark container"><path aria-label="Posterior: 0.0232457636846; density: 0.0574613683942; Prior: Uninformative" role="graphics-symbol" aria-roledescription="line mark" d="M12.172,199.77L15.111,199.685L18.049,199.581L20.988,199.461L23.927,199.325L26.866,199.179L29.805,199.025L32.744,198.865L35.683,198.701L38.622,198.531L41.561,198.349L44.5,198.147L47.439,197.914L50.378,197.637L53.317,197.304L56.255,196.905L59.194,196.432L62.133,195.88L65.072,195.245L68.011,194.525L70.95,193.718L73.889,192.82L76.828,191.823L79.767,190.72L82.706,189.499L85.645,188.151L88.584,186.666L91.523,185.038L94.461,183.262L97.4,181.338L100.339,179.269L103.278,177.063L106.217,174.732L109.156,172.292L112.095,169.761L115.034,167.161L117.973,164.516L120.912,161.848L123.851,159.179L126.79,156.532L129.729,153.927L132.667,151.381L135.606,148.91L138.545,146.527L141.484,144.241L144.423,142.058L147.362,139.979L150.301,138.003L153.24,136.123L156.179,134.33L159.118,132.609L162.057,130.943L164.996,129.312L167.935,127.694L170.873,126.072L173.812,124.44L176.751,122.804L179.69,121.186L182.629,119.626L185.568,118.173L188.507,116.879L191.446,115.79L194.385,114.936L197.324,114.325L200.263,113.943L203.202,113.758L206.14,113.73L209.079,113.822L212.018,114.008L214.957,114.286L217.896,114.675L220.835,115.215L223.774,115.955L226.713,116.945L229.652,118.221L232.591,119.8L235.53,121.668L238.469,123.788L241.408,126.094L244.346,128.506L247.285,130.939L250.224,133.312L253.163,135.56L256.102,137.642L259.041,139.544L261.98,141.279L264.919,142.886L267.858,144.415L270.797,145.92L273.736,147.449L276.675,149.036L279.614,150.693L282.552,152.418L285.491,154.191L288.43,155.983L291.369,157.765L294.308,159.509L297.247,161.193L300.186,162.806L303.125,164.344L306.064,165.814L309.003,167.225L311.942,168.59L314.881,169.922L317.82,171.232L320.758,172.525L323.697,173.804L326.636,175.066L329.575,176.307L332.514,177.523L335.453,178.709L338.392,179.86L341.331,180.971L344.27,182.035L347.209,183.043L350.148,183.987L353.087,184.855L356.026,185.643L358.964,186.349L361.903,186.979L364.842,187.547L367.781,188.072L370.72,188.578L373.659,189.086L376.598,189.612L379.537,190.167L382.476,190.753L385.415,191.364L388.354,191.989L391.293,192.618L394.232,193.235L397.17,193.832L400.109,194.398L403.048,194.927L405.987,195.414L408.926,195.855L411.865,196.247L414.804,196.589L417.743,196.882L420.682,197.127L423.621,197.33L426.56,197.498L429.499,197.638L432.438,197.76L435.376,197.873L438.315,197.984L441.254,198.098L444.193,198.219L447.132,198.348L450.071,198.482L453.01,198.618L455.949,198.75L458.888,198.874L461.827,198.986L464.766,199.084L467.705,199.166L470.644,199.234L473.582,199.29L476.521,199.337L479.46,199.379L482.399,199.418L485.338,199.458L488.277,199.499L491.216,199.543L494.155,199.59L497.094,199.639L500.033,199.688L502.972,199.737L505.911,199.783L508.85,199.825L511.788,199.862L514.727,199.893L517.666,199.916L520.605,199.933L523.544,199.943L526.483,199.947L529.422,199.945L532.361,199.939L535.3,199.93L538.239,199.919L541.178,199.909L544.117,199.901L547.056,199.896L549.994,199.895L552.933,199.899L555.872,199.906L558.811,199.916L561.75,199.928L564.689,199.941L567.628,199.954L570.567,199.965L573.506,199.975L576.445,199.983L579.384,199.988L582.323,199.993L585.262,199.995L588.2,199.997L591.139,199.999L594.078,199.999L597.017,200L599.956,200" stroke="#7035b7" stroke-width="2" opacity="0.5"/></g></g><path class="foreground" aria-hidden="true" d="" display="none"/></g></g><g class="mark-rule role-mark layer_1_marks" role="graphics-object" aria-roledescription="rule mark container"><line aria-label="x: 0.08; label: Old Feature CR (8%)" role="graphics-symbol" aria-roledescription="rule mark" transform="translate(225,0)" x2="0" y2="200" stroke="#107591" stroke-width="1" stroke-dasharray="5,5"/><line aria-label="x: 0.075; label: New Feature CR (7.5%)" role="graphics-symbol" aria-roledescription="rule mark" transform="translate(206.24999999999997,0)" x2="0" y2="200" stroke="#f69a48" stroke-width="1" stroke-dasharray="5,5"/></g><g class="mark-group role-legend" role="graphics-symbol" aria-roledescription="legend" aria-label="Symbol legend titled 'Conversion Rate' for stroke color with 8 values: Very Optimistic, Optimistic, Historical Based, Strong Historical, Skeptical, ending with New Feature CR (7.5%)"><g transform="translate(620,0)"><path class="background" aria-hidden="true" d="M0,0h114v118h-114Z" pointer-events="none"/><g><g class="mark-group role-legend-entry"><g transform="translate(0,16)"><path class="background" aria-hidden="true" d="M0,0h0v0h0Z" pointer-events="none"/><g><g class="mark-group role-scope" role="graphics-object" aria-roledescription="group mark container"><g transform="translate(0,0)"><path class="background" aria-hidden="true" d="M0,0h113.197265625v11h-113.197265625Z" pointer-events="none" opacity="1"/><g><g class="mark-symbol role-legend-symbol" pointer-events="none"><path transform="translate(6,6)" d="M-5,0L5,0" stroke="#107591" stroke-width="1.5" opacity="0.5"/></g><g class="mark-text role-legend-label" pointer-events="none"><text text-anchor="start" transform="translate(16,9)" font-family="IBM Plex Sans,system-ui,-apple-system,BlinkMacSystemFont,&quot;.sfnstext-regular&quot;,sans-serif" font-size="10px" font-weight="400" fill="#525252" opacity="1">Very Optimistic</text></g></g><path class="foreground" aria-hidden="true" d="" pointer-events="none" display="none"/></g><g transform="translate(0,13)"><path class="background" aria-hidden="true" d="M0,0h113.197265625v11h-113.197265625Z" pointer-events="none" opacity="1"/><g><g class="mark-symbol role-legend-symbol" pointer-events="none"><path transform="translate(6,6)" d="M-5,0L5,0" stroke="#f69a48" stroke-width="1.5" opacity="0.5"/></g><g class="mark-text role-legend-label" pointer-events="none"><text text-anchor="start" transform="translate(16,9)" font-family="IBM Plex Sans,system-ui,-apple-system,BlinkMacSystemFont,&quot;.sfnstext-regular&quot;,sans-serif" font-size="10px" font-weight="400" fill="#525252" opacity="1">Optimistic</text></g></g><path class="foreground" aria-hidden="true" d="" pointer-events="none" display="none"/></g><g transform="translate(0,26)"><path class="background" aria-hidden="true" d="M0,0h113.197265625v11h-113.197265625Z" pointer-events="none" opacity="1"/><g><g class="mark-symbol role-legend-symbol" pointer-events="none"><path transform="translate(6,6)" d="M-5,0L5,0" stroke="#00c0bf" stroke-width="1.5" opacity="0.5"/></g><g class="mark-text role-legend-label" pointer-events="none"><text text-anchor="start" transform="translate(16,9)" font-family="IBM Plex Sans,system-ui,-apple-system,BlinkMacSystemFont,&quot;.sfnstext-regular&quot;,sans-serif" font-size="10px" font-weight="400" fill="#525252" opacity="1">Historical Based</text></g></g><path class="foreground" aria-hidden="true" d="" pointer-events="none" display="none"/></g><g transform="translate(0,39)"><path class="background" aria-hidden="true" d="M0,0h113.197265625v11h-113.197265625Z" pointer-events="none" opacity="1"/><g><g class="mark-symbol role-legend-symbol" pointer-events="none"><path transform="translate(6,6)" d="M-5,0L5,0" stroke="#fdcd49" stroke-width="1.5" opacity="0.5"/></g><g class="mark-text role-legend-label" pointer-events="none"><text text-anchor="start" transform="translate(16,9)" font-family="IBM Plex Sans,system-ui,-apple-system,BlinkMacSystemFont,&quot;.sfnstext-regular&quot;,sans-serif" font-size="10px" font-weight="400" fill="#525252" opacity="1">Strong Historical</text></g></g><path class="foreground" aria-hidden="true" d="" pointer-events="none" display="none"/></g><g transform="translate(0,52)"><path class="background" aria-hidden="true" d="M0,0h113.197265625v11h-113.197265625Z" pointer-events="none" opacity="1"/><g><g class="mark-symbol role-legend-symbol" pointer-events="none"><path transform="translate(6,6)" d="M-5,0L5,0" stroke="#cf166e" stroke-width="1.5" opacity="0.5"/></g><g class="mark-text role-legend-label" pointer-events="none"><text text-anchor="start" transform="translate(16,9)" font-family="IBM Plex Sans,system-ui,-apple-system,BlinkMacSystemFont,&quot;.sfnstext-regular&quot;,sans-serif" font-size="10px" font-weight="400" fill="#525252" opacity="1">Skeptical</text></g></g><path class="foreground" aria-hidden="true" d="" pointer-events="none" display="none"/></g><g transform="translate(0,65)"><path class="background" aria-hidden="true" d="M0,0h113.197265625v11h-113.197265625Z" pointer-events="none" opacity="1"/><g><g class="mark-symbol role-legend-symbol" pointer-events="none"><path transform="translate(6,6)" d="M-5,0L5,0" stroke="#7035b7" stroke-width="1.5" opacity="0.5"/></g><g class="mark-text role-legend-label" pointer-events="none"><text text-anchor="start" transform="translate(16,9)" font-family="IBM Plex Sans,system-ui,-apple-system,BlinkMacSystemFont,&quot;.sfnstext-regular&quot;,sans-serif" font-size="10px" font-weight="400" fill="#525252" opacity="1">Uninformative</text></g></g><path class="foreground" aria-hidden="true" d="" pointer-events="none" display="none"/></g><g transform="translate(0,78)"><path class="background" aria-hidden="true" d="M0,0h113.197265625v11h-113.197265625Z" pointer-events="none" opacity="1"/><g><g class="mark-symbol role-legend-symbol" pointer-events="none"><path transform="translate(6,6)" d="M-5,0L5,0" stroke="#107591" stroke-width="1.5" opacity="0.5"/></g><g class="mark-text role-legend-label" pointer-events="none"><text text-anchor="start" transform="translate(16,9)" font-family="IBM Plex Sans,system-ui,-apple-system,BlinkMacSystemFont,&quot;.sfnstext-regular&quot;,sans-serif" font-size="10px" font-weight="400" fill="#525252" opacity="1">Old Feature CR (8%)</text></g></g><path class="foreground" aria-hidden="true" d="" pointer-events="none" display="none"/></g><g transform="translate(0,91)"><path class="background" aria-hidden="true" d="M0,0h113.197265625v11h-113.197265625Z" pointer-events="none" opacity="1"/><g><g class="mark-symbol role-legend-symbol" pointer-events="none"><path transform="translate(6,6)" d="M-5,0L5,0" stroke="#f69a48" stroke-width="1.5" opacity="0.5"/></g><g class="mark-text role-legend-label" pointer-events="none"><text text-anchor="start" transform="translate(16,9)" font-family="IBM Plex Sans,system-ui,-apple-system,BlinkMacSystemFont,&quot;.sfnstext-regular&quot;,sans-serif" font-size="10px" font-weight="400" fill="#525252" opacity="1">New Feature CR (7.5%)</text></g></g><path class="foreground" aria-hidden="true" d="" pointer-events="none" display="none"/></g></g></g><path class="foreground" aria-hidden="true" d="" pointer-events="none" display="none"/></g></g><g class="mark-text role-legend-title" pointer-events="none"><text text-anchor="start" transform="translate(0,9)" font-family="IBM Plex Sans,system-ui,-apple-system,BlinkMacSystemFont,&quot;.sfnstext-regular&quot;,sans-serif" font-size="11px" font-weight="400" fill="#525252" opacity="1">Conversion Rate</text></g></g><path class="foreground" aria-hidden="true" d="" pointer-events="none" display="none"/></g></g><g class="mark-group role-title"><g transform="translate(-34.5,-26)"><path class="background" aria-hidden="true" d="M0,0h0v0h0Z" pointer-events="none"/><g><g class="mark-text role-title-text" role="graphics-symbol" aria-roledescription="title" aria-label="Title text 'Posterior Distributions by Prior Belief'" pointer-events="none"><text text-anchor="start" transform="translate(0,-2)" font-family="IBM Plex Sans,system-ui,-apple-system,BlinkMacSystemFont,&quot;.sfnstext-regular&quot;,sans-serif" font-size="16px" font-weight="600" fill="#161616" opacity="1">Posterior Distributions by Prior Belief</text></g></g><path class="foreground" aria-hidden="true" d="" pointer-events="none" display="none"/></g></g></g><path class="foreground" aria-hidden="true" d="" display="none"/></g></g></g></svg>